<?xml version="1.0" standalone="no"?>
<!DOCTYPE svg PUBLIC "-//W3C//DTD SVG 20010904//EN"
 "http://www.w3.org/TR/2001/REC-SVG-20010904/DTD/svg10.dtd">
<svg version="1.0" xmlns="http://www.w3.org/2000/svg"
 width="839.000000pt" height="838.000000pt" viewBox="0 0 839.000000 838.000000"
 preserveAspectRatio="xMidYMid meet">

<g transform="translate(0.000000,838.000000) scale(0.100000,-0.100000)"
fill="#000000" stroke="none">
<path d="M3976 8369 c-721 -36 -1434 -265 -2045 -656 -647 -416 -1181 -1019
-1512 -1708 -642 -1337 -531 -2912 293 -4143 145 -216 284 -387 478 -586 289
-296 583 -525 932 -724 866 -496 1902 -662 2898 -466 1088 214 2053 865 2677
1805 592 889 816 2003 617 3069 -82 440 -248 899 -465 1283 -275 487 -686 955
-1134 1292 -586 440 -1269 716 -2010 810 -109 13 -484 37 -545 33 -14 0 -97
-5 -184 -9z m-1066 -3812 c0 -592 1 -609 50 -680 54 -78 128 -111 250 -110 95
1 167 29 216 86 64 75 64 79 64 699 l0 558 271 0 271 0 -4 -577 c-4 -555 -5
-581 -26 -658 -38 -139 -84 -219 -181 -316 -61 -60 -106 -95 -151 -117 -152
-74 -367 -98 -635 -71 -225 23 -335 68 -456 189 -91 90 -130 156 -166 281
l-27 94 -4 588 -3 587 266 0 265 0 0 -553z m2000 253 l0 -300 285 0 285 0 0
300 0 300 270 0 270 0 0 -860 0 -860 -270 0 -270 0 0 345 0 345 -285 0 -285 0
0 -345 0 -345 -270 0 -270 0 0 860 0 860 270 0 270 0 0 -300z"/>
</g>
</svg>
